<svg width="60" height="60" viewBox="0 0 60 60" fill="none" xmlns="http://www.w3.org/2000/svg">
<path d="M0 0H60V45C60 53.2843 53.2843 60 45 60H0V0Z" fill="white"/>
<path d="M6.234 47V12.7H15.789V47H6.234ZM39.5613 47.686C34.1713 47.686 29.7123 46.02 26.1843 42.688C22.6563 39.3233 20.8923 35.044 20.8923 29.85C20.8923 24.8193 22.6399 20.589 26.1353 17.159C29.6633 13.729 34.0733 12.014 39.3653 12.014C44.7879 12.014 49.4266 13.68 53.2813 17.012L47.6953 23.725C45.1146 21.569 42.3543 20.491 39.4143 20.491C36.9316 20.491 34.8409 21.4057 33.1423 23.235C31.4763 25.0643 30.6433 27.3183 30.6433 29.997C30.6433 32.7737 31.5089 35.0603 33.2403 36.857C35.0043 38.621 37.2419 39.503 39.9533 39.503C42.1746 39.503 44.0039 39.0293 45.4413 38.082V33.917H38.6793V26.959H54.4573V42.394C50.1779 45.922 45.2126 47.686 39.5613 47.686Z" fill="#1D1D1D"/>
</svg>
